<mxfile host="app.diagrams.net" modified="2023-12-04T14:42:18.669Z" agent="Mozilla/5.0 (Macintosh; Intel Mac OS X 10_15_7) AppleWebKit/537.36 (KHTML, like Gecko) Chrome/119.0.0.0 Safari/537.36" version="22.1.5" etag="TjLeHP1gCP1Ue_dI_VRH" type="device">
  <diagram id="2DzNNNeqr2DS80IsFjMz" name="Page-1">
    <mxGraphModel dx="1026" dy="654" grid="1" gridSize="10" guides="1" tooltips="1" connect="1" arrows="1" fold="1" page="1" pageScale="1" pageWidth="827" pageHeight="1169" math="0" shadow="0">
      <root>
        <mxCell id="0" />
        <mxCell id="1" parent="0" />
        <mxCell id="1x09VPYrITekIsag4eLF-1" value="" style="rounded=0;whiteSpace=wrap;html=1;movable=1;resizable=1;rotatable=1;deletable=1;editable=1;locked=0;connectable=1;" vertex="1" parent="1">
          <mxGeometry x="179" y="60" width="470" height="500" as="geometry" />
        </mxCell>
        <mxCell id="1x09VPYrITekIsag4eLF-2" value="Add Toggle" style="text;html=1;strokeColor=none;fillColor=none;align=center;verticalAlign=middle;whiteSpace=wrap;rounded=0;" vertex="1" parent="1">
          <mxGeometry x="361" y="120" width="126" height="30" as="geometry" />
        </mxCell>
        <mxCell id="1x09VPYrITekIsag4eLF-4" value="" style="rounded=0;whiteSpace=wrap;html=1;" vertex="1" parent="1">
          <mxGeometry x="342" y="160" width="160" height="110" as="geometry" />
        </mxCell>
        <mxCell id="1x09VPYrITekIsag4eLF-5" value="&lt;span style=&quot;font-size: 8px;&quot;&gt;Toggle Name&lt;/span&gt;" style="rounded=1;whiteSpace=wrap;html=1;align=left;" vertex="1" parent="1">
          <mxGeometry x="357" y="170" width="130" height="20" as="geometry" />
        </mxCell>
        <mxCell id="1x09VPYrITekIsag4eLF-7" value="&lt;font style=&quot;font-size: 8px;&quot;&gt;Create Toggle&lt;/font&gt;" style="rounded=1;whiteSpace=wrap;html=1;fillColor=#dae8fc;strokeColor=#6c8ebf;" vertex="1" parent="1">
          <mxGeometry x="357" y="240" width="130" height="20" as="geometry" />
        </mxCell>
        <mxCell id="1x09VPYrITekIsag4eLF-8" value="&lt;font style=&quot;font-size: 8px;&quot;&gt;Initial Toggle State&lt;/font&gt;" style="text;html=1;strokeColor=none;fillColor=none;align=center;verticalAlign=middle;whiteSpace=wrap;rounded=0;" vertex="1" parent="1">
          <mxGeometry x="357" y="190" width="76" height="30" as="geometry" />
        </mxCell>
        <mxCell id="1x09VPYrITekIsag4eLF-9" value="" style="fillColor=#36B37E;strokeColor=none;rounded=1;arcSize=50;sketch=0;hachureGap=4;pointerEvents=0;fontFamily=Architects Daughter;fontSource=https%3A%2F%2Ffonts.googleapis.com%2Fcss%3Ffamily%3DArchitects%2BDaughter;fontSize=20;" vertex="1" parent="1">
          <mxGeometry x="457" y="197" width="30" height="16" as="geometry" />
        </mxCell>
        <mxCell id="1x09VPYrITekIsag4eLF-10" value="" style="shape=ellipse;strokeColor=none;fillColor=#ffffff;sketch=0;hachureGap=4;pointerEvents=0;fontFamily=Architects Daughter;fontSource=https%3A%2F%2Ffonts.googleapis.com%2Fcss%3Ffamily%3DArchitects%2BDaughter;fontSize=20;" vertex="1" parent="1x09VPYrITekIsag4eLF-9">
          <mxGeometry x="1" y="0.5" width="12" height="12" relative="1" as="geometry">
            <mxPoint x="-14" y="-6" as="offset" />
          </mxGeometry>
        </mxCell>
        <mxCell id="1x09VPYrITekIsag4eLF-11" value="" style="html=1;shadow=0;dashed=0;shape=mxgraph.atlassian.check;strokeColor=#ffffff;sketch=1;hachureGap=4;pointerEvents=0;fontFamily=Architects Daughter;fontSource=https%3A%2F%2Ffonts.googleapis.com%2Fcss%3Ffamily%3DArchitects%2BDaughter;fontSize=20;" vertex="1" parent="1x09VPYrITekIsag4eLF-9">
          <mxGeometry y="0.5" width="6" height="5" relative="1" as="geometry">
            <mxPoint x="4" y="-3" as="offset" />
          </mxGeometry>
        </mxCell>
      </root>
    </mxGraphModel>
  </diagram>
</mxfile>
